<?xml version="1.0" encoding="utf-8"?>
<!-- Generator: Adobe Illustrator 26.0.1, SVG Export Plug-In . SVG Version: 6.00 Build 0)  -->
<svg version="1.1" id="Calque_1" xmlns="http://www.w3.org/2000/svg" xmlns:xlink="http://www.w3.org/1999/xlink" x="0px" y="0px"
	 viewBox="0 0 237.2 121.5" style="enable-background:new 0 0 237.2 121.5;" xml:space="preserve">
<style type="text/css">
	.st0{fill:#FD2D01;}
	.st1{fill:#FFD7D7;}
</style>
<g id="_x37_e319840-739a-a0f1-f316-ea813584ba79" transform="matrix(2.8,0,0,2.8,30.62199562788011,167.12059412002563)">
	<path class="st0" d="M-5.8-19.2L-5.8-19.2c-1.5,0-2.7-0.5-3.6-1.5l0,0l0,0c-1-1-1.5-2.2-1.5-3.7l0,0l0,0c0-1.4,0.5-2.7,1.5-3.6l0,0
		l0,0c1-1,2.2-1.5,3.6-1.5l0,0l0,0c1.5,0,2.7,0.5,3.8,1.4l0,0l-1.4,1.5l0,0c-0.7-0.6-1.5-0.8-2.4-0.8l0,0l0,0
		c-0.9,0-1.7,0.3-2.2,0.9l0,0l0,0c-0.6,0.5-0.9,1.2-0.9,2.1l0,0l0,0c0,1,0.3,1.7,0.9,2.3l0,0l0,0c0.6,0.6,1.3,0.8,2.2,0.8l0,0l0,0
		c0.7,0,1.3-0.1,1.7-0.4l0,0v-1.8h-1.4v-1.9h3.4v4.8l0,0C-3.1-19.7-4.3-19.2-5.8-19.2L-5.8-19.2z M1.6-26.1v0.8l0,0
		c0.5-0.5,1.1-0.8,1.8-0.8l0,0l0,0c0.2,0,0.4,0,0.6,0l0,0l-0.2,2l0,0c-0.2-0.2-0.5-0.3-0.9-0.3l0,0l0,0c-0.5,0-0.9,0.4-1.2,1l0,0
		v4.2h-1.9v-6.7L1.6-26.1z M8.4-19.2L8.4-19.2c-1,0-1.8-0.3-2.5-1l0,0l0,0c-0.7-0.7-1-1.5-1-2.5l0,0l0,0c0-1,0.3-1.8,1-2.5l0,0l0,0
		c0.7-0.7,1.5-1,2.5-1l0,0l0,0c1,0,1.8,0.3,2.5,1l0,0l0,0c0.7,0.7,1,1.5,1,2.5l0,0l0,0c0,1-0.3,1.8-1,2.5l0,0l0,0
		C10.2-19.5,9.4-19.2,8.4-19.2L8.4-19.2z M8.4-20.8L8.4-20.8L8.4-20.8c0.5,0,0.9-0.2,1.3-0.5l0,0l0,0c0.3-0.3,0.5-0.8,0.5-1.3l0,0
		l0,0c0-0.5-0.2-1-0.5-1.3l0,0l0,0c-0.3-0.4-0.8-0.5-1.3-0.5l0,0l0,0c-0.5,0-0.9,0.2-1.3,0.5l0,0l0,0c-0.3,0.3-0.5,0.8-0.5,1.3l0,0
		l0,0c0,0.5,0.2,1,0.5,1.3l0,0l0,0C7.5-21,7.9-20.8,8.4-20.8z M17.3-21.7L17.3-21.7v-4.4h1.9v6.8h-1.9v-0.6l0,0
		c-0.5,0.4-1,0.6-1.6,0.6l0,0l0,0c-0.9,0-1.5-0.3-2-0.8l0,0l0,0c-0.5-0.5-0.7-1.1-0.7-1.8l0,0v-4.2h1.9v3.8l0,0
		c0,0.5,0.1,0.8,0.3,1.1l0,0l0,0c0.2,0.3,0.6,0.4,1,0.4l0,0l0,0C16.7-20.9,17-21.1,17.3-21.7z M22.8-16.3h-1.9v-9.6l1.9-0.2v0.6l0,0
		c0.5-0.4,1-0.6,1.5-0.6l0,0l0,0c1,0,1.9,0.3,2.5,1l0,0l0,0c0.6,0.7,0.9,1.5,0.9,2.4l0,0l0,0c0,0.9-0.3,1.7-0.9,2.4l0,0l0,0
		c-0.6,0.7-1.4,1-2.5,1l0,0l0,0c-0.7,0-1.2-0.2-1.5-0.6l0,0V-16.3z M22.8-23.3L22.8-23.3v1.1l0,0c0.1,0.8,0.6,1.2,1.4,1.4l0,0l0,0
		c1.1-0.1,1.7-0.7,1.8-1.7l0,0l0,0c0-1.3-0.7-1.9-1.8-2l0,0l0,0C23.3-24.4,22.9-23.9,22.8-23.3z M32.1-19.2L32.1-19.2
		c-1,0-1.8-0.3-2.5-1l0,0l0,0c-0.7-0.7-1-1.5-1-2.5l0,0l0,0c0-1,0.3-1.8,1-2.5l0,0l0,0c0.7-0.7,1.5-1,2.5-1l0,0l0,0
		c1,0,1.8,0.3,2.5,1l0,0l0,0c0.7,0.7,1,1.5,1,2.5l0,0l0,0c0,1-0.3,1.8-1,2.5l0,0l0,0C34-19.5,33.1-19.2,32.1-19.2L32.1-19.2z
		 M32.1-20.8L32.1-20.8L32.1-20.8c0.5,0,0.9-0.2,1.3-0.5l0,0l0,0c0.3-0.3,0.5-0.8,0.5-1.3l0,0l0,0c0-0.5-0.2-1-0.5-1.3l0,0l0,0
		c-0.3-0.4-0.7-0.5-1.3-0.5l0,0l0,0c-0.5,0-0.9,0.2-1.3,0.5l0,0l0,0c-0.3,0.3-0.5,0.8-0.5,1.3l0,0l0,0c0,0.5,0.2,1,0.5,1.3l0,0l0,0
		C31.2-21,31.6-20.8,32.1-20.8z M38.8-23.6L38.8-23.6v4.4h-1.9v-6.7l1.9-0.2v0.6l0,0c0.4-0.4,1-0.6,1.6-0.6l0,0l0,0
		c0.9,0,1.5,0.3,2,0.8l0,0l0,0c0.5-0.5,1.3-0.8,2.2-0.8l0,0l0,0c0.9,0,1.5,0.3,2,0.8l0,0l0,0c0.5,0.5,0.7,1.1,0.7,1.8l0,0v4.2h-1.9
		V-23l0,0c0-0.5-0.1-0.8-0.3-1.1l0,0l0,0c-0.2-0.2-0.5-0.4-1-0.4l0,0l0,0c-0.4,0-0.7,0.3-1,0.8l0,0l0,0c0,0.1,0,0.3,0,0.4l0,0v4
		h-1.9V-23l0,0c0-0.5-0.1-0.8-0.3-1.1l0,0l0,0c-0.2-0.2-0.5-0.4-1-0.4l0,0l0,0C39.5-24.4,39.1-24.1,38.8-23.6z M49.9-24.1l-0.8-1.2
		l0,0c0.9-0.5,1.9-0.8,3-0.8l0,0l0,0c0.8,0,1.5,0.2,1.9,0.7l0,0l0,0c0.5,0.5,0.7,1.1,0.7,2l0,0v4.1h-1.9v-0.5l0,0
		c-0.6,0.4-1.1,0.5-1.5,0.5l0,0l0,0c-0.9,0-1.6-0.2-2-0.6l0,0l0,0c-0.5-0.4-0.7-0.9-0.7-1.6l0,0l0,0c0-0.6,0.2-1.2,0.7-1.7l0,0l0,0
		c0.5-0.4,1.2-0.7,2.1-0.7l0,0l0,0c0.4,0,1,0.1,1.5,0.4l0,0v-0.2l0,0c0-0.5-0.4-0.8-1.1-0.8l0,0l0,0C51-24.5,50.4-24.4,49.9-24.1
		L49.9-24.1z M53-21.3L53-21.3V-22l0,0c-0.2-0.4-0.6-0.5-1.3-0.5l0,0l0,0c-0.8,0.1-1.3,0.4-1.3,1l0,0l0,0c0,0.5,0.5,0.8,1.3,0.9l0,0
		l0,0C52.3-20.7,52.8-20.9,53-21.3z M58.5-23.6L58.5-23.6v4.3h-1.9v-6.6l1.9-0.2v0.6l0,0c0.5-0.4,1-0.6,1.6-0.6l0,0l0,0
		c0.9,0,1.5,0.3,2,0.8l0,0l0,0c0.5,0.5,0.7,1.2,0.7,1.8l0,0v4.2h-1.9V-23l0,0c0-0.5-0.1-0.8-0.3-1.1l0,0l0,0c-0.2-0.2-0.6-0.4-1-0.4
		l0,0l0,0C59.1-24.4,58.8-24.1,58.5-23.6z M66.3-19.2h-1.9v-6.9h1.9V-19.2z M64.3-27.7L64.3-27.7L64.3-27.7c0,0.3,0.1,0.5,0.3,0.7
		l0,0l0,0c0.2,0.2,0.4,0.3,0.8,0.3l0,0l0,0c0.3,0,0.6-0.1,0.8-0.3l0,0l0,0c0.2-0.2,0.3-0.4,0.3-0.7l0,0l0,0c0-0.3-0.1-0.5-0.3-0.7
		l0,0l0,0c-0.2-0.2-0.4-0.3-0.8-0.3l0,0l0,0c-0.3,0-0.6,0.1-0.7,0.3l0,0l0,0C64.4-28.2,64.3-28,64.3-27.7z M68.9-24.1l-0.8-1.2l0,0
		c0.9-0.5,1.9-0.8,3-0.8l0,0l0,0c0.8,0,1.5,0.2,1.9,0.7l0,0l0,0c0.5,0.5,0.8,1.2,0.8,2.1l0,0v4.1h-1.9v-0.5l0,0
		c-0.6,0.4-1.1,0.5-1.5,0.5l0,0l0,0c-0.9,0-1.6-0.2-2.1-0.6l0,0l0,0c-0.5-0.4-0.7-0.9-0.7-1.6l0,0l0,0c0-0.6,0.2-1.2,0.7-1.7l0,0
		l0,0c0.4-0.5,1.1-0.8,2.1-0.8l0,0l0,0c0.4,0,0.9,0.1,1.5,0.4l0,0v-0.2l0,0c0-0.5-0.4-0.8-1.1-0.8l0,0l0,0
		C70-24.5,69.3-24.4,68.9-24.1L68.9-24.1z M71.9-21.3L71.9-21.3V-22l0,0c-0.2-0.4-0.6-0.5-1.3-0.5l0,0l0,0c-0.8,0.1-1.3,0.4-1.3,1
		l0,0l0,0c0,0.5,0.5,0.8,1.3,0.9l0,0l0,0C71.3-20.7,71.7-20.9,71.9-21.3z"/>
</g>
<g id="_x34_cb061db-73fa-16fe-1d0a-15980590225e" transform="matrix(0.2931737713407769,0,0,0.2931737713407769,106.0239289062273,82.12728504171139)">
	<g>
		<path class="st1" d="M42.7-29.3c33.6,0,65.1-12.9,88.8-36.6s36.6-55.2,36.6-88.8s-12.9-65.1-36.6-88.8s-55.2-36.6-88.8-36.6
			s-65.1,12.9-88.8,36.6s-36.6,55.2-36.6,88.8s12.9,65.1,36.6,88.8S9.1-29.3,42.7-29.3z M49.9-50.6c-2.4,0.3-4.8,0.3-7.2,0.3
			c-3.3,0-6.6-0.3-9.9-0.6C22-67.7,13.9-85.7,9.1-104.6h53.1c1.8,4.5,5.1,8.7,9,11.4C66.1-78.2,58.9-64.1,49.9-50.6z M78.4-56.6
			c5.7-10.5,10.2-21,13.8-32.1c8.7-1.8,15.6-7.8,18.9-15.9h23.1C122.2-82.7,102.1-65.6,78.4-56.6z M146.8-154.7
			c0,9.9-1.5,19.5-3.9,28.8h-32.4c-1.8-3.9-4.8-7.5-8.4-10.2c0.6-6.6,0.9-13.2,0.9-19.8c0-9.3-0.6-18.6-1.8-27.6h41.4
			C145.6-174.5,146.8-164.6,146.8-154.7z M134.2-204.8H97.6c-3.9-16.5-9.6-32.1-17.4-47.1C103-243.2,122.2-226.1,134.2-204.8z
			 M82-155.9c0,5.1-0.3,10.2-0.6,15.3c-8.4,1.8-15.3,7.2-18.6,14.7H4.9c-1.2-9-2.1-18.3-2.1-27.3c0-5.7,0.3-11.4,0.9-17.1
			c7.8-1.5,14.1-6.6,18-13.2h58.5C81.4-174.5,82-165.2,82-155.9L82-155.9z M34.9-258.5c2.7-0.3,5.4-0.3,7.8-0.3c3,0,6,0,9,0.3
			c10.8,16.8,18.9,34.8,23.7,53.7H23.2c-1.8-5.1-5.1-9.6-9.3-12.9C19.3-232.1,26.2-245.6,34.9-258.5L34.9-258.5z M6.4-252.5
			c-5.1,9.6-9.6,19.8-13.2,30c-9.3,1.8-16.8,8.7-19.8,17.4h-21.9C-36.8-226.4-17.3-243.5,6.4-252.5z M-61.4-154.7
			c0-9.9,1.5-19.8,4.2-28.8h32.7c1.8,3.3,4.5,6.3,7.5,8.7c-0.6,7.2-1.2,14.4-1.2,21.6c0,9.3,0.6,18.3,1.8,27.3h-40.8
			C-60.2-135.2-61.4-144.8-61.4-154.7z M-12.8-104.9c3.9,16.2,9.6,32.1,17.4,47.1c-22.8-9-41.7-25.8-53.4-47.1
			C-48.8-104.9-12.8-104.9-12.8-104.9z"/>
	</g>
</g>
</svg>
