<?xml version="1.0" encoding="utf-8"?>
<!-- Generator: Adobe Illustrator 26.0.1, SVG Export Plug-In . SVG Version: 6.00 Build 0)  -->
<svg version="1.1" id="Calque_1" xmlns="http://www.w3.org/2000/svg" xmlns:xlink="http://www.w3.org/1999/xlink" x="0px" y="0px"
	 viewBox="0 0 300 300" style="enable-background:new 0 0 300 300;" xml:space="preserve">
<style type="text/css">
	.st0{fill:#FD2D01;}
	.st1{fill:#FFD7D7;}
</style>
<g id="_x37_e319840-739a-a0f1-f316-ea813584ba79" transform="matrix(2.8,0,0,2.8,30.62199562788011,167.12059412002563)">
	<path class="st0" d="M5.4,12.7L5.4,12.7c-1.5,0-2.7-0.5-3.6-1.5l0,0l0,0c-1-1-1.5-2.2-1.5-3.7l0,0l0,0c0-1.4,0.5-2.7,1.5-3.6l0,0
		l0,0c1-1,2.2-1.5,3.6-1.5l0,0l0,0c1.5,0,2.7,0.5,3.8,1.4l0,0L7.8,5.3l0,0C7.1,4.7,6.3,4.5,5.4,4.5l0,0l0,0c-0.9,0-1.7,0.3-2.2,0.9
		l0,0l0,0C2.6,5.9,2.3,6.6,2.3,7.5l0,0l0,0c0,1,0.3,1.7,0.9,2.3l0,0l0,0c0.6,0.6,1.3,0.8,2.2,0.8l0,0l0,0c0.7,0,1.3-0.1,1.7-0.4l0,0
		V8.4l-1.4,0V6.5h3.4v4.8l0,0C8.1,12.2,6.9,12.7,5.4,12.7L5.4,12.7z M12.8,5.8v0.8l0,0c0.5-0.5,1.1-0.8,1.8-0.8l0,0l0,0
		c0.2,0,0.4,0,0.6,0l0,0L15,7.8l0,0c-0.2-0.2-0.5-0.3-0.9-0.3l0,0l0,0c-0.5,0-0.9,0.4-1.2,1l0,0v4.2h-1.9V6L12.8,5.8z M19.6,12.7
		L19.6,12.7c-1,0-1.8-0.3-2.5-1l0,0l0,0c-0.7-0.7-1-1.5-1-2.5l0,0l0,0c0-1,0.3-1.8,1-2.5l0,0l0,0c0.7-0.7,1.5-1,2.5-1l0,0l0,0
		c1,0,1.8,0.3,2.5,1l0,0l0,0c0.7,0.7,1,1.5,1,2.5l0,0l0,0c0,1-0.3,1.8-1,2.5l0,0l0,0C21.4,12.4,20.6,12.7,19.6,12.7L19.6,12.7z
		 M19.6,11.1L19.6,11.1L19.6,11.1c0.5,0,0.9-0.2,1.3-0.5l0,0l0,0c0.3-0.3,0.5-0.8,0.5-1.3l0,0l0,0c0-0.5-0.2-1-0.5-1.3l0,0l0,0
		c-0.3-0.4-0.8-0.5-1.3-0.5l0,0l0,0c-0.5,0-0.9,0.2-1.3,0.5l0,0l0,0c-0.3,0.3-0.5,0.8-0.5,1.3l0,0l0,0c0,0.5,0.2,1,0.5,1.3l0,0l0,0
		C18.7,10.9,19.1,11.1,19.6,11.1z M28.5,10.2L28.5,10.2V5.8h1.9v6.8h-1.9v-0.6l0,0c-0.5,0.4-1,0.6-1.6,0.6l0,0l0,0
		c-0.9,0-1.5-0.3-2-0.8l0,0l0,0c-0.5-0.5-0.7-1.1-0.7-1.8l0,0V5.8h1.9v3.8l0,0c0,0.5,0.1,0.8,0.3,1.1l0,0l0,0c0.2,0.3,0.6,0.4,1,0.4
		l0,0l0,0C27.9,11,28.2,10.8,28.5,10.2z M34,15.6l-1.9,0V6L34,5.8v0.6l0,0c0.5-0.4,1-0.6,1.5-0.6l0,0l0,0c1,0,1.9,0.3,2.5,1l0,0l0,0
		c0.6,0.7,0.9,1.5,0.9,2.4l0,0l0,0c0,0.9-0.3,1.7-0.9,2.4l0,0l0,0c-0.6,0.7-1.4,1-2.5,1l0,0l0,0c-0.7,0-1.2-0.2-1.5-0.6l0,0V15.6z
		 M34,8.6L34,8.6v1.1l0,0c0.1,0.8,0.6,1.2,1.4,1.4l0,0l0,0c1.1-0.1,1.7-0.7,1.8-1.7l0,0l0,0c0-1.3-0.7-1.9-1.8-2l0,0l0,0
		C34.5,7.5,34.1,8,34,8.6z M43.3,12.7L43.3,12.7c-1,0-1.8-0.3-2.5-1l0,0l0,0c-0.7-0.7-1-1.5-1-2.5l0,0l0,0c0-1,0.3-1.8,1-2.5l0,0
		l0,0c0.7-0.7,1.5-1,2.5-1l0,0l0,0c1,0,1.8,0.3,2.5,1l0,0l0,0c0.7,0.7,1,1.5,1,2.5l0,0l0,0c0,1-0.3,1.8-1,2.5l0,0l0,0
		C45.2,12.4,44.3,12.7,43.3,12.7L43.3,12.7z M43.3,11.1L43.3,11.1L43.3,11.1c0.5,0,0.9-0.2,1.3-0.5l0,0l0,0c0.3-0.3,0.5-0.8,0.5-1.3
		l0,0l0,0c0-0.5-0.2-1-0.5-1.3l0,0l0,0c-0.3-0.4-0.7-0.5-1.3-0.5l0,0l0,0c-0.5,0-0.9,0.2-1.3,0.5l0,0l0,0c-0.3,0.3-0.5,0.8-0.5,1.3
		l0,0l0,0c0,0.5,0.2,1,0.5,1.3l0,0l0,0C42.4,10.9,42.8,11.1,43.3,11.1z M50,8.3L50,8.3v4.4h-1.9V6L50,5.8v0.6l0,0
		c0.4-0.4,1-0.6,1.6-0.6l0,0l0,0c0.9,0,1.5,0.3,2,0.8l0,0l0,0c0.5-0.5,1.3-0.8,2.2-0.8l0,0l0,0c0.9,0,1.5,0.3,2,0.8l0,0l0,0
		c0.5,0.5,0.7,1.1,0.7,1.8l0,0v4.2h-1.9V8.9l0,0c0-0.5-0.1-0.8-0.3-1.1l0,0l0,0c-0.2-0.2-0.5-0.4-1-0.4l0,0l0,0
		c-0.4,0-0.7,0.3-1,0.8l0,0l0,0c0,0.1,0,0.3,0,0.4l0,0v4h-1.9V8.9l0,0c0-0.5-0.1-0.8-0.3-1.1l0,0l0,0c-0.2-0.2-0.5-0.4-1-0.4l0,0
		l0,0C50.7,7.5,50.3,7.8,50,8.3z M61.1,7.8l-0.8-1.2l0,0c0.9-0.5,1.9-0.8,3-0.8l0,0l0,0c0.8,0,1.5,0.2,1.9,0.7l0,0l0,0
		c0.5,0.5,0.7,1.1,0.7,2l0,0v4.1h-1.9v-0.5l0,0c-0.6,0.4-1.1,0.5-1.5,0.5l0,0l0,0c-0.9,0-1.6-0.2-2-0.6l0,0l0,0
		c-0.5-0.4-0.7-0.9-0.7-1.6l0,0l0,0c0-0.6,0.2-1.2,0.7-1.7l0,0l0,0C61,8.3,61.7,8,62.6,8l0,0l0,0c0.4,0,1,0.1,1.5,0.4l0,0V8.2l0,0
		c0-0.5-0.4-0.8-1.1-0.8l0,0l0,0C62.2,7.4,61.6,7.5,61.1,7.8L61.1,7.8z M64.2,10.6L64.2,10.6V9.9l0,0c-0.2-0.4-0.6-0.5-1.3-0.5l0,0
		l0,0c-0.8,0.1-1.3,0.4-1.3,1l0,0l0,0c0,0.5,0.5,0.8,1.3,0.9l0,0l0,0C63.5,11.2,64,11,64.2,10.6z M69.7,8.3L69.7,8.3v4.3h-1.9V6
		l1.9-0.2v0.6l0,0c0.5-0.4,1-0.6,1.6-0.6l0,0l0,0c0.9,0,1.5,0.3,2,0.8l0,0l0,0C73.8,7.1,74,7.8,74,8.4l0,0v4.2h-1.9V8.9l0,0
		c0-0.5-0.1-0.8-0.3-1.1l0,0l0,0c-0.2-0.2-0.6-0.4-1-0.4l0,0l0,0C70.3,7.5,70,7.8,69.7,8.3z M77.5,12.7h-1.9V5.8h1.9V12.7z
		 M75.5,4.2L75.5,4.2L75.5,4.2c0,0.3,0.1,0.5,0.3,0.7l0,0l0,0c0.2,0.2,0.4,0.3,0.8,0.3l0,0l0,0c0.3,0,0.6-0.1,0.8-0.3l0,0l0,0
		c0.2-0.2,0.3-0.4,0.3-0.7l0,0l0,0c0-0.3-0.1-0.5-0.3-0.7l0,0l0,0c-0.2-0.2-0.4-0.3-0.8-0.3l0,0l0,0c-0.3,0-0.6,0.1-0.7,0.3l0,0l0,0
		C75.6,3.7,75.5,3.9,75.5,4.2z M80.1,7.8l-0.8-1.2l0,0c0.9-0.5,1.9-0.8,3-0.8l0,0l0,0c0.8,0,1.5,0.2,1.9,0.7l0,0l0,0
		C84.7,7,85,7.7,85,8.6l0,0v4.1h-1.9v-0.5l0,0c-0.6,0.4-1.1,0.5-1.5,0.5l0,0l0,0c-0.9,0-1.6-0.2-2.1-0.6l0,0l0,0
		c-0.5-0.4-0.7-0.9-0.7-1.6l0,0l0,0c0-0.6,0.2-1.2,0.7-1.7l0,0l0,0C79.9,8.3,80.6,8,81.6,8l0,0l0,0c0.4,0,0.9,0.1,1.5,0.4l0,0V8.2
		l0,0c0-0.5-0.4-0.8-1.1-0.8l0,0l0,0C81.2,7.4,80.5,7.5,80.1,7.8L80.1,7.8z M83.1,10.6L83.1,10.6V9.9l0,0c-0.2-0.4-0.6-0.5-1.3-0.5
		l0,0l0,0c-0.8,0.1-1.3,0.4-1.3,1l0,0l0,0c0,0.5,0.5,0.8,1.3,0.9l0,0l0,0C82.5,11.2,82.9,11,83.1,10.6z"/>
</g>
<g id="_x34_cb061db-73fa-16fe-1d0a-15980590225e" transform="matrix(0.2931737713407769,0,0,0.2931737713407769,106.0239289062273,82.12728504171139)">
	<g>
		<path class="st1" d="M150,275.4c33.6,0,65.1-12.9,88.8-36.6c23.7-23.7,36.6-55.2,36.6-88.8c0-33.6-12.9-65.1-36.6-88.8
			c-23.7-23.7-55.2-36.6-88.8-36.6S84.9,37.5,61.2,61.2C37.5,84.9,24.6,116.4,24.6,150s12.9,65.1,36.6,88.8S116.4,275.4,150,275.4z
			 M157.2,254.1c-2.4,0.3-4.8,0.3-7.2,0.3c-3.3,0-6.6-0.3-9.9-0.6c-10.8-16.8-18.9-34.8-23.7-53.7h53.1c1.8,4.5,5.1,8.7,9,11.4
			C173.4,226.5,166.2,240.6,157.2,254.1z M185.7,248.1c5.7-10.5,10.2-21,13.8-32.1c8.7-1.8,15.6-7.8,18.9-15.9h23.1
			C229.5,222,209.4,239.1,185.7,248.1z M254.1,150c0,9.9-1.5,19.5-3.9,28.8h-32.4c-1.8-3.9-4.8-7.5-8.4-10.2
			c0.6-6.6,0.9-13.2,0.9-19.8c0-9.3-0.6-18.6-1.8-27.6h41.4C252.9,130.2,254.1,140.1,254.1,150z M241.5,99.9h-36.6
			c-3.9-16.5-9.6-32.1-17.4-47.1C210.3,61.5,229.5,78.6,241.5,99.9z M189.3,148.8c0,5.1-0.3,10.2-0.6,15.3
			c-8.4,1.8-15.3,7.2-18.6,14.7h-57.9c-1.2-9-2.1-18.3-2.1-27.3c0-5.7,0.3-11.4,0.9-17.1c7.8-1.5,14.1-6.6,18-13.2h58.5
			C188.7,130.2,189.3,139.5,189.3,148.8L189.3,148.8z M142.2,46.2c2.7-0.3,5.4-0.3,7.8-0.3c3,0,6,0,9,0.3
			C169.8,63,177.9,81,182.7,99.9h-52.2c-1.8-5.1-5.1-9.6-9.3-12.9C126.6,72.6,133.5,59.1,142.2,46.2L142.2,46.2z M113.7,52.2
			c-5.1,9.6-9.6,19.8-13.2,30c-9.3,1.8-16.8,8.7-19.8,17.4H58.8C70.5,78.3,90,61.2,113.7,52.2z M45.9,150c0-9.9,1.5-19.8,4.2-28.8
			h32.7c1.8,3.3,4.5,6.3,7.5,8.7c-0.6,7.2-1.2,14.4-1.2,21.6c0,9.3,0.6,18.3,1.8,27.3H50.1C47.1,169.5,45.9,159.9,45.9,150z
			 M94.5,199.8c3.9,16.2,9.6,32.1,17.4,47.1c-22.8-9-41.7-25.8-53.4-47.1H94.5z"/>
	</g>
</g>
</svg>
